<?xml version="1.0" encoding="UTF-8"?>
<svg xmlns="http://www.w3.org/2000/svg" version="1.1" viewBox="0 0 16 16">
  <!-- Generator: Adobe Illustrator 29.0.0, SVG Export Plug-In . SVG Version: 2.1.0 Build 186)  -->
  <defs>
    <style>
      .st0 {
        fill: #fff;
      }
    </style>
  </defs>
  <g id="Capa_1">
    <path d="M8,16c4.2-.2,7.5-3.7,7.5-7.5,0-3.2-2.2-6.2-5.5-7.2-.4-.1-1-.2-1.7-.2-.9,0-1.7.1-2.3.2-.5.1-3,.9-4.5,3.5-.2.3-1.6,2.8-.7,5.7.9,3,3.7,5.2,7.2,5.5ZM14.5,8.5c0,3.6-2.9,6.5-6.5,6.5S1.5,12.1,1.5,8.5s2.9-6.5,6.5-6.5,6.5,2.9,6.5,6.5"/>
    <path d="M6.9,7.4l4.9-2.8-2.8,4.9-4.9,2.8,2.8-4.9h0Z"/>
  </g>
  <g id="Capa_2">
    <polygon class="st0" points="7.3 7.6 8.9 9.2 11.1 5.5 7.3 7.6"/>
  </g>
</svg>